<svg t="1731119786827" class="icon" viewBox="0 0 1024 1024" version="1.1" xmlns="http://www.w3.org/2000/svg" p-id="5649" width="200" height="200"><path d="M629.28747 983.804109a37.920294 37.920294 0 0 1-37.920295 40.195512h-189.60147a37.920294 37.920294 0 0 1-37.920294-40.195512l37.920294-606.724705a37.920294 37.920294 0 0 1 37.920294-35.645076h113.760882a37.920294 37.920294 0 0 1 37.920294 35.645076l37.920295 606.724705z" fill="#E0E0E0" p-id="5650"></path><path d="M325.925117 113.912563h-113.760882a37.920294 37.920294 0 0 0-37.920294 37.920294v113.760883a37.920294 37.920294 0 0 0 37.920294 37.920294h113.760882a37.920294 37.920294 0 0 0 37.920294-37.920294v-113.760883a37.920294 37.920294 0 0 0-37.920294-37.920294z" fill="#FDD835" p-id="5651"></path><path d="M953.505984 317.16534a37.920294 37.920294 0 0 1-68.25653 23.131379 308.291991 308.291991 0 0 0-180.121396-106.176823v83.045444a37.920294 37.920294 0 0 1-4.171233 17.064132l-30.715438 62.189282a37.920294 37.920294 0 0 1-34.128265 20.856162h-279.093364a37.920294 37.920294 0 0 1-34.128264-20.856162l-30.715439-62.189282a37.920294 37.920294 0 0 1-4.171232-17.064132v-216.904083a37.920294 37.920294 0 0 1 4.171232-17.064132l30.715439-62.189282a37.920294 37.920294 0 0 1 34.128264-20.856162h314.738441a315.496847 315.496847 0 0 1 281.747785 317.013659zM212.164235 38.071975h-113.760882a37.920294 37.920294 0 0 0-37.920294 37.920294v265.442059a37.920294 37.920294 0 0 0 37.920294 37.920294h113.760882a37.920294 37.920294 0 0 0 37.920294-37.920294v-265.442059a37.920294 37.920294 0 0 0-37.920294-37.920294z" fill="#FFA726" p-id="5652"></path><path d="M629.28747 983.804109a37.920294 37.920294 0 0 1-37.920295 40.195512h-94.800735v-682.565293h56.880441a37.920294 37.920294 0 0 1 37.920294 35.645076l37.920295 606.724705z" fill="#BDBDBD" p-id="5653"></path><path d="M953.505984 317.16534a37.920294 37.920294 0 0 1-68.25653 23.131379 308.291991 308.291991 0 0 0-180.121396-106.176823v83.045444a37.920294 37.920294 0 0 1-4.171233 17.064132l-30.715438 62.189282a37.920294 37.920294 0 0 1-34.128265 20.856162h-139.546682v-417.123235h175.191759a315.496847 315.496847 0 0 1 281.747785 317.013659zM250.084529 75.992269v265.442059a37.920294 37.920294 0 0 1-37.920294 37.920294h-56.880441v-341.282647h56.880441a37.920294 37.920294 0 0 1 37.920294 37.920294z" fill="#FB8C00" p-id="5654"></path></svg>